<svg xmlns="http://www.w3.org/2000/svg" class="border shadow-md" preserveAspectRatio="none" style="width:1032.24px;height:580.635px" viewBox="0 0 1032.24 580.635"><path fill="#00292e" d="M0 0h1032.24v580.635H0z" class="bg"/><defs><filter id="a" width="500%" height="500%" x="-200%" y="-200%"><feGaussianBlur stdDeviation="25"/></filter></defs><path fill="#00536E" d="M8 8h3553.014v592.169H8z" filter="url(#a)" opacity=".4" transform="rotate(5 3717.519 -1885.89)"/><path fill="#00546f" d="M-8-8h3553.014v592.169H-8z" filter="url(#a)" opacity=".4" transform="rotate(5 3717.519 -1885.89)"/><path fill="#005570" d="M-150.22-331.18 3389.274-21.513l-51.611 589.916-3539.494-309.666z"/><path fill="#005671" d="M8 8h3553.014v592.169H8z" filter="url(#a)" opacity=".4" transform="rotate(21 -701.015 -811.943)"/><path fill="#005772" d="M-8-8h3553.014v592.169H-8z" filter="url(#a)" opacity=".4" transform="rotate(21 -701.015 -811.943)"/><path fill="#005873" d="M-337.535 197.292 2979.489 1470.58l-212.214 552.837L-549.75 750.13z"/><path fill="#005974" d="M8 8h3553.014v592.169H8z" filter="url(#a)" opacity=".4" transform="rotate(16 -1023.633 -3594.071)"/><path fill="#005a75" d="M-8-8h3553.014v592.169H-8z" filter="url(#a)" opacity=".4" transform="rotate(16 -1023.633 -3594.071)"/><path fill="#005b76" d="m-1030.314 142.923 3415.376 979.344-163.224 569.23-3415.376-979.344z"/><path fill="#005c77" d="M8 8h3553.014v592.169H8z" filter="url(#a)" opacity=".4" transform="rotate(11 2151.876 -6232.848)"/><path fill="#005d78" d="M-8-8h3553.014v592.169H-8z" filter="url(#a)" opacity=".4" transform="rotate(11 2151.876 -6232.848)"/><path fill="#044A62" d="m-1149.747-525.112 3487.735 677.947-112.991 581.289L-1262.74 56.177z"/><path fill="#005f7a" d="M8 8h3553.014v592.169H8z" filter="url(#a)" opacity=".4" transform="rotate(22 1873.61 -2175.31)"/><path fill="#00607b" d="M-8-8h3553.014v592.169H-8z" filter="url(#a)" opacity=".4" transform="rotate(22 1873.61 -2175.31)"/><path fill="#00617c" d="M-678.457-860.264 2615.841 470.718l-221.83 549.05L-900.288-311.215z"/></svg>