<svg class="border shadow-md" viewBox="0 0 1032.24 580.635" style="width: 1032.24px; height: 580.635px;" xmlns="http://www.w3.org/2000/svg" preserveAspectRatio="none"><rect class="bg" id="bg" x="0" y="0" width="1032.24" height="580.635" fill="#00292e"/><defs><filter id="f1" x="-200%" y="-200%" width="500%" height="500%"><feGaussianBlur stdDeviation="25"/></filter></defs><g transform="translate(-152.176574891379 -292.8439476473371) rotate(5 439.99240876636884 3.2405441815368476 )"><rect x="8" y="8" opacity="0.4" width="3553.013901946487" height="592.1689836577478" fill="#00536E" filter="url(#f1)"/><rect x="-8" y="-8" opacity="0.4" width="3553.013901946487" height="592.1689836577478" fill="#00546f" filter="url(#f1)"/><rect x="0" y="0" width="3553.013901946487" height="592.1689836577478" fill="#005570"/></g><g transform="translate(-517.3190830739968 191.71652698989408) rotate(21 74.84990058375104 487.801018818768 )"><rect x="8" y="8" opacity="0.4" width="3553.013901946487" height="592.1689836577478" fill="#005671" filter="url(#f1)"/><rect x="-8" y="-8" opacity="0.4" width="3553.013901946487" height="592.1689836577478" fill="#005772" filter="url(#f1)"/><rect x="0" y="0" width="3553.013901946487" height="592.1689836577478" fill="#005873"/></g><g transform="translate(-1090.9987204139302 -5.817213328245998) rotate(16 -498.82973675618234 290.2672785006279 )"><rect x="8" y="8" opacity="0.4" width="3553.013901946487" height="592.1689836577478" fill="#005974" filter="url(#f1)"/><rect x="-8" y="-8" opacity="0.4" width="3553.013901946487" height="592.1689836577478" fill="#005a75" filter="url(#f1)"/><rect x="0" y="0" width="3553.013901946487" height="592.1689836577478" fill="#005b76"/></g><g transform="translate(-1080.4097267611046 -612.460253406983) rotate(11 -488.24074310335664 -316.3757615781091 )"><rect x="8" y="8" opacity="0.4" width="3553.013901946487" height="592.1689836577478" fill="#005c77" filter="url(#f1)"/><rect x="-8" y="-8" opacity="0.4" width="3553.013901946487" height="592.1689836577478" fill="#005d78" filter="url(#f1)"/><rect x="0" y="0" width="3553.013901946487" height="592.1689836577478" fill="#044A62"/></g><g transform="translate(-500.18573143706817 -789.8525308960673) rotate(22 91.98325222067967 -493.7680390671934 )"><rect x="8" y="8" opacity="0.4" width="3553.013901946487" height="592.1689836577478" fill="#005f7a" filter="url(#f1)"/><rect x="-8" y="-8" opacity="0.4" width="3553.013901946487" height="592.1689836577478" fill="#00607b" filter="url(#f1)"/><rect x="0" y="0" width="3553.013901946487" height="592.1689836577478" fill="#00617c"/></g></svg>